<svg width="62" height="50" viewBox="0 0 62 50" fill="none" xmlns="http://www.w3.org/2000/svg">
<g clip-path="url(#clip0_6_114)">
<path d="M30.897 50.036C22.766 50.036 14.635 50.036 6.505 50.036C6.478 50.036 6.447 50.037 6.415 50.037C2.872 50.037 0 47.165 0 43.622C0 43.59 0 43.559 0.001 43.527V43.532C0.0723333 34.0967 0.0723333 24.6554 0.001 15.208C0.001 15.197 0.001 15.185 0.001 15.172C0.001 11.619 2.881 8.73903 6.434 8.73903C22.767 8.73903 39.082 8.73903 55.415 8.73903C55.497 8.73503 55.593 8.73303 55.69 8.73303C59.085 8.73303 61.837 11.485 61.837 14.88C61.837 14.983 61.834 15.085 61.829 15.186L61.83 15.172V43.532C61.837 43.641 61.841 43.768 61.841 43.897C61.841 47.292 59.089 50.044 55.694 50.044C55.59 50.044 55.486 50.041 55.383 50.036L55.398 50.037L30.897 50.036ZM30.897 43.871C30.939 43.871 30.99 43.872 31.04 43.872C39.014 43.872 45.479 37.407 45.479 29.433C45.479 21.459 39.014 14.994 31.04 14.994C23.078 14.994 16.622 21.438 16.601 29.394V29.396C16.65 37.281 22.988 43.669 30.849 43.799H30.861L30.897 43.871ZM12.384 19.049C12.345 17.928 11.436 17.031 10.313 17.012H10.311C9.176 17.012 8.256 17.932 8.256 19.067C8.256 20.202 9.176 21.122 10.311 21.122C11.448 21.102 12.364 20.186 12.384 19.051V19.049Z" fill="#CCBA8D"/>
<path d="M42.28 6.165H19.532C19.889 4.735 20.211 3.359 20.568 1.983C20.646 0.853003 21.582 -0.0339966 22.725 -0.0339966C22.859 -0.0339966 22.991 -0.0219966 23.118 0.00200342L23.105 3.41982e-06H38.938C39.008 -0.00799658 39.089 -0.0129966 39.17 -0.0129966C40.219 -0.0129966 41.085 0.766003 41.224 1.776L41.225 1.787C41.565 3.074 41.886 4.36 42.208 5.647C42.244 5.808 42.244 5.969 42.279 6.165H42.28Z" fill="#CCBA8D"/>
<path d="M30.861 43.799C22.902 43.778 16.459 37.322 16.459 29.36C16.459 21.386 22.924 14.921 30.898 14.921C38.872 14.921 45.337 21.386 45.337 29.36C45.337 29.41 45.337 29.46 45.336 29.511V29.503C45.215 37.412 38.785 43.78 30.863 43.799H30.861ZM30.861 39.671C36.556 39.671 41.172 35.055 41.172 29.36C41.172 23.665 36.556 19.049 30.861 19.049C25.179 19.049 20.57 23.645 20.55 29.322V29.324C20.55 29.345 20.55 29.371 20.55 29.396C20.55 35.071 25.15 39.671 30.825 39.671C30.863 39.671 30.901 39.671 30.938 39.67H30.932L30.861 39.671Z" fill="#CCBA8D"/>
<path d="M12.384 19.049C12.365 20.174 11.468 21.083 10.35 21.122H10.346C9.211 21.122 8.291 20.202 8.291 19.067C8.291 17.932 9.211 17.012 10.346 17.012C11.455 17.05 12.345 17.94 12.383 19.046V19.05L12.384 19.049Z" fill="#BDAE82"/>
<path d="M31.129 21.14C35.507 21.284 39.019 24.801 39.152 29.169V29.182C39.154 29.22 39.156 29.265 39.156 29.311C39.156 30.443 38.272 31.368 37.156 31.434H37.15C37.145 31.434 37.138 31.434 37.132 31.434C35.987 31.434 35.059 30.506 35.059 29.361C35.02 27.109 33.215 25.292 30.972 25.233H30.966C30.949 25.233 30.93 25.234 30.91 25.234C29.785 25.234 28.873 24.322 28.873 23.197C28.873 23.165 28.874 23.134 28.875 23.102V23.106C28.929 22.005 29.836 21.132 30.946 21.132C31.01 21.132 31.073 21.135 31.135 21.14L31.127 21.139L31.129 21.14Z" fill="#CCBA8D"/>
</g>
<defs>
<clipPath id="clip0_6_114">
<rect width="62" height="50" fill="white"/>
</clipPath>
</defs>
</svg>
