<svg width="66" height="50" viewBox="0 0 66 50" fill="none" xmlns="http://www.w3.org/2000/svg">
<g clip-path="url(#clip0_6_146)">
<path d="M-1.41598e-05 48.503V1.49698C0.361986 0.608981 1.21999 -0.00601904 2.21999 -0.00601904C2.27999 -0.00601904 2.33999 -0.00401904 2.39899 0.000980957H2.39099H63.727C63.784 -0.00401904 63.851 -0.00701904 63.918 -0.00701904C65.158 -0.00701904 66.163 0.997981 66.163 2.23798C66.163 2.30498 66.16 2.37198 66.154 2.43698L66.155 2.42898C66.155 11.903 66.155 21.378 66.155 30.834C66.155 36.475 66.155 42.115 66.155 47.756C66.163 47.822 66.167 47.899 66.167 47.977C66.167 49.076 65.276 49.967 64.177 49.967C64.147 49.967 64.117 49.966 64.087 49.965H64.091H2.64499C2.54299 49.979 2.42599 49.988 2.30599 49.988C1.28699 49.988 0.407986 49.387 0.00498584 48.521L-0.00201416 48.505L-1.41598e-05 48.503ZM62.066 4.14398H4.12499V32.092L4.76399 31.654L15.991 23.604C16.388 23.206 16.936 22.96 17.543 22.96C18.15 22.96 18.698 23.206 19.095 23.604L30.888 32.056C32.713 33.37 34.539 34.685 36.364 35.963C36.696 36.219 37.117 36.374 37.575 36.374C38.476 36.374 39.237 35.776 39.482 34.955L39.486 34.941C39.537 34.771 39.566 34.576 39.566 34.373C39.566 33.6 39.141 32.926 38.511 32.573L38.501 32.568C35.9577 30.7793 33.469 28.9843 31.035 27.183L30.469 26.763L30.798 26.507L40.966 19.205C41.363 18.807 41.911 18.561 42.518 18.561C43.125 18.561 43.673 18.807 44.07 19.205L61.412 31.655L62.051 32.075L62.066 4.14398Z" fill="#BDAE82"/>
<path d="M26.962 9.34597C29.987 9.34597 32.438 11.798 32.438 14.822C32.484 15.09 32.511 15.399 32.511 15.713C32.511 18.738 30.059 21.189 27.035 21.189C24.011 21.189 21.559 18.737 21.559 15.713C21.559 15.398 21.586 15.09 21.637 14.789L21.632 14.821C21.632 14.82 21.632 14.82 21.632 14.819C21.632 11.846 24.001 9.42597 26.955 9.34497H26.963L26.962 9.34597Z" fill="#CCBA8D"/>
</g>
<defs>
<clipPath id="clip0_6_146">
<rect width="66" height="50" fill="white"/>
</clipPath>
</defs>
</svg>
